<?xml version="1.0" encoding="utf-8"?>
<!-- Generator: Adobe Illustrator 24.2.1, SVG Export Plug-In . SVG Version: 6.00 Build 0)  -->
<svg version="1.1" id="katman_1" xmlns="http://www.w3.org/2000/svg" xmlns:xlink="http://www.w3.org/1999/xlink" x="0px" y="0px"
	 viewBox="0 0 226.8 55.3" style="enable-background:new 0 0 226.8 55.3;" xml:space="preserve">
<style type="text/css">
	.st0{fill:#C10230;}
	.st1{fill:#B2B2B2;}
	.st2{fill:#FFFFFF;}
</style>
<g>
	<g>
		<path class="st0" d="M17.1,36.3c-6.5-1.8-11.3-7.8-11.3-15c0-3,0.9-5.9,2.4-8.3c-0.3-0.3-0.7-0.6-1-1c-0.3-0.2-0.5-0.5-0.8-0.7
			C6.2,11.2,6,11,5.9,10.8c0-0.1-0.1-0.1-0.1-0.1L4.6,9.3L6,8.1C6.1,8,6.1,8,6.1,7.9C6.3,7.8,6.6,7.5,7,7.3C7.3,7.1,7.8,7,8.2,7
			c0.5,0,1.1,0.2,1.5,0.5L10,7.7c0.6,0.4,1.2,0.8,1.8,1.1c0,0,0.1,0,0.1,0c0,0,0.1,0,0.2-0.1c0.3-0.2,0.7-0.3,1-0.5
			c2.4-1.5,5.2-2.4,8.3-2.4c8.6,0,15.5,7,15.5,15.6c0,7.4-5.1,13.5-12,15.1c-0.4,4.9-1,11.5-1.5,16.1c5.4-5.8,19.2-21.7,19.2-31.2
			C42.7,9.6,33.2,0,21.4,0S0,9.6,0,21.4c0,9.2,12.9,24.3,18.7,30.6C18.2,47.3,17.6,41.1,17.1,36.3z"/>
		<path class="st0" d="M141.1,15.6c1.9,0,3.4,0.7,4.7,2.1c1.3,1.4,2,3.1,2,5.1s-0.7,3.8-2,5.1s-2.9,2.1-4.7,2.1
			c-1.9,0-3.4-0.7-4.4-2v1.6h-3.6V10.5h3.6v7.1C137.7,16.3,139.2,15.6,141.1,15.6z M137.7,25.7c0.7,0.7,1.6,1.1,2.7,1.1
			s2-0.4,2.7-1.1c0.7-0.7,1.1-1.6,1.1-2.8s-0.4-2.1-1.1-2.8c-0.7-0.7-1.6-1.1-2.7-1.1s-2,0.4-2.7,1.1c-0.7,0.7-1.1,1.6-1.1,2.8
			C136.7,24,137,25,137.7,25.7z"/>
		<path class="st0" d="M158.8,16h3.6v13.7h-3.6v-1.5c-0.9,1.3-2.2,1.9-4.1,1.9c-1.5,0-2.7-0.5-3.7-1.5s-1.5-2.4-1.5-4.2V16h3.6v8
			c0,0.9,0.2,1.6,0.7,2.1c0.5,0.5,1.1,0.7,2,0.7c0.9,0,1.6-0.3,2.2-0.9s0.8-1.4,0.8-2.6V16z"/>
		<path class="st0" d="M168.6,18.4c0.3-0.9,0.9-1.5,1.6-2c0.8-0.4,1.6-0.7,2.5-0.7v4c-1.1-0.1-2.1,0.1-2.9,0.7
			c-0.9,0.6-1.3,1.5-1.3,2.8v6.6h-3.6V16h3.6V18.4z"/>
		<path class="st0" d="M184.2,16h3.6v13.7h-3.6v-1.6c-1.1,1.3-2.6,2-4.5,2c-1.8,0-3.4-0.7-4.7-2.1c-1.3-1.4-2-3.1-2-5.1
			s0.6-3.8,2-5.1c1.3-1.4,2.9-2.1,4.7-2.1c1.9,0,3.4,0.7,4.5,2V16z M177.7,25.7c0.7,0.7,1.6,1.1,2.7,1.1s2-0.4,2.7-1.1
			c0.7-0.7,1.1-1.6,1.1-2.8s-0.4-2.1-1.1-2.8c-0.7-0.7-1.6-1.1-2.7-1.1s-2,0.4-2.7,1.1c-0.7,0.7-1.1,1.6-1.1,2.8
			C176.6,24,177,25,177.7,25.7z"/>
		<path class="st0" d="M200.9,10.5h3.6v19.2h-3.6v-1.6c-1,1.3-2.5,2-4.4,2c-1.9,0-3.4-0.7-4.7-2.1c-1.3-1.4-2-3.1-2-5.1
			s0.6-3.8,2-5.1c1.3-1.4,2.9-2.1,4.7-2.1c1.9,0,3.4,0.7,4.4,2V10.5z M194.3,25.7c0.7,0.7,1.6,1.1,2.7,1.1s2-0.4,2.7-1.1
			c0.7-0.7,1.1-1.6,1.1-2.8s-0.4-2.1-1.1-2.8c-0.7-0.7-1.6-1.1-2.7-1.1s-2,0.4-2.7,1.1c-0.7,0.7-1.1,1.6-1.1,2.8
			C193.3,24,193.6,25,194.3,25.7z"/>
		<path class="st0" d="M217.6,16h3.6v13.7h-3.6v-1.6c-1.1,1.3-2.6,2-4.5,2c-1.8,0-3.4-0.7-4.7-2.1c-1.3-1.4-2-3.1-2-5.1
			s0.6-3.8,2-5.1c1.3-1.4,2.9-2.1,4.7-2.1c1.9,0,3.4,0.7,4.5,2V16z M211,25.7c0.7,0.7,1.6,1.1,2.7,1.1s2-0.4,2.7-1.1
			c0.7-0.7,1.1-1.6,1.1-2.8s-0.4-2.1-1.1-2.8c-0.7-0.7-1.6-1.1-2.7-1.1s-2,0.4-2.7,1.1c-0.7,0.7-1.1,1.6-1.1,2.8
			C209.9,24,210.3,25,211,25.7z"/>
	</g>
	<g>
		<g>
			<path class="st1" d="M54.6,39.2c0.4,0.2,0.7,0.4,1,0.7c0.2,0.3,0.4,0.7,0.4,1.2c0,0.6-0.2,1.1-0.6,1.5c-0.4,0.4-0.9,0.6-1.5,0.6
				h-3.3v-7.7h3.1c0.6,0,1,0.2,1.4,0.6s0.6,0.9,0.6,1.4c0,0.4-0.1,0.7-0.3,1C55.1,38.8,54.9,39,54.6,39.2z M53.5,36.1h-2.5V39h2.5
				c0.4,0,0.7-0.1,1-0.4c0.3-0.3,0.4-0.6,0.4-1s-0.1-0.8-0.4-1C54.3,36.2,54,36.1,53.5,36.1z M53.8,42.6c0.4,0,0.8-0.2,1.1-0.5
				c0.3-0.3,0.4-0.7,0.4-1.1c0-0.4-0.2-0.8-0.4-1.1c-0.3-0.3-0.7-0.5-1.1-0.5h-2.7v3.1H53.8z"/>
			<path class="st1" d="M61,37.6c0.8,0,1.5,0.3,2,0.9s0.8,1.2,0.8,2c0,0,0,0.1,0,0.1c0,0.1,0,0.1,0,0.1h-5c0.1,0.6,0.3,1.1,0.7,1.5
				s1,0.6,1.6,0.6c0.4,0,0.8-0.1,1.2-0.3s0.6-0.4,0.8-0.7l0.5,0.3c-0.2,0.4-0.5,0.7-1,0.9c-0.4,0.2-0.9,0.3-1.4,0.3
				c-0.8,0-1.5-0.3-2.1-0.8c-0.5-0.5-0.8-1.2-0.8-2.1c0-0.8,0.3-1.5,0.8-2C59.5,37.8,60.2,37.6,61,37.6z M61,38.1
				c-0.6,0-1.1,0.2-1.6,0.6c-0.4,0.4-0.7,0.9-0.7,1.5h4.4c-0.1-0.7-0.3-1.2-0.7-1.5S61.5,38.1,61,38.1z"/>
			<path class="st1" d="M66.8,38.8c0.3-0.8,0.9-1.2,1.8-1.2v0.5c-0.5,0-1,0.2-1.3,0.5s-0.5,0.8-0.5,1.5v3h-0.5v-5.5h0.6
				C66.9,37.7,66.9,38.8,66.8,38.8z"/>
			<path class="st1" d="M74,37.6c0.8,0,1.5,0.3,2,0.8c0.6,0.5,0.8,1.2,0.8,2s-0.3,1.5-0.8,2c-0.6,0.5-1.2,0.8-2,0.8
				c-0.5,0-1-0.1-1.4-0.4s-0.7-0.6-1-1v1.3h-0.6v-7.7h0.6V39c0.2-0.4,0.6-0.8,1-1C73,37.7,73.5,37.6,74,37.6z M72.3,42.1
				c0.4,0.5,1,0.7,1.7,0.7s1.2-0.2,1.7-0.7c0.4-0.5,0.7-1,0.7-1.7s-0.2-1.2-0.7-1.7c-0.4-0.5-1-0.7-1.7-0.7s-1.2,0.2-1.7,0.7
				c-0.4,0.5-0.7,1-0.7,1.7S71.9,41.6,72.3,42.1z"/>
			<path class="st1" d="M82,37.6c0.8,0,1.5,0.3,2,0.9s0.8,1.2,0.8,2c0,0,0,0.1,0,0.1c0,0.1,0,0.1,0,0.1h-5c0.1,0.6,0.3,1.1,0.7,1.5
				s1,0.6,1.6,0.6c0.4,0,0.8-0.1,1.2-0.3s0.6-0.4,0.8-0.7l0.5,0.3c-0.2,0.4-0.6,0.7-1,0.9c-0.4,0.2-0.9,0.3-1.4,0.3
				c-0.8,0-1.5-0.3-2.1-0.8c-0.5-0.5-0.8-1.2-0.8-2.1c0-0.8,0.3-1.5,0.8-2C80.4,37.8,81.1,37.6,82,37.6z M82,38.1
				c-0.6,0-1.1,0.2-1.6,0.6c-0.4,0.4-0.7,0.9-0.7,1.5h4.4c-0.1-0.7-0.3-1.2-0.7-1.5C83,38.3,82.5,38.1,82,38.1z"/>
			<path class="st1" d="M87.8,38.8c0.3-0.8,0.9-1.2,1.8-1.2v0.5c-0.5,0-1,0.2-1.3,0.5s-0.5,0.8-0.5,1.5v3h-0.6v-5.5h0.6L87.8,38.8
				L87.8,38.8z"/>
			<path class="st1" d="M92.3,36.9c-0.2,0-0.3,0-0.4-0.2c-0.1-0.1-0.2-0.2-0.2-0.4c0-0.2,0.1-0.3,0.2-0.4s0.2-0.2,0.4-0.2
				c0.1,0,0.3,0,0.4,0.2c0.1,0.1,0.2,0.2,0.2,0.4c0,0.2-0.1,0.3-0.2,0.4S92.5,36.9,92.3,36.9z M92.1,43.2v-5.5h0.6v5.5
				C92.6,43.2,92.1,43.2,92.1,43.2z"/>
			<path class="st1" d="M98.1,37.6c0.7,0,1.2,0.2,1.6,0.6c0.4,0.4,0.6,0.9,0.6,1.6v3.4h-0.6v-3.4c0-0.5-0.1-0.9-0.4-1.2
				c-0.3-0.3-0.7-0.5-1.2-0.5c-0.6,0-1,0.2-1.4,0.6c-0.4,0.4-0.5,0.9-0.5,1.6v2.9h-0.6v-5.5h0.6v1C96.6,38,97.2,37.6,98.1,37.6z"/>
			<path class="st1" d="M103.4,36.9c-0.2,0-0.3,0-0.4-0.2c-0.1-0.1-0.2-0.2-0.2-0.4c0-0.2,0.1-0.3,0.2-0.4s0.2-0.2,0.4-0.2
				c0.1,0,0.3,0,0.4,0.2s0.2,0.2,0.2,0.4c0,0.2-0.1,0.3-0.2,0.4S103.5,36.9,103.4,36.9z M103.1,43.2v-5.5h0.6v5.5
				C103.7,43.2,103.1,43.2,103.1,43.2z"/>
			<path class="st1" d="M113.8,37.6c0.8,0,1.5,0.3,2,0.8c0.6,0.5,0.8,1.2,0.8,2s-0.3,1.5-0.8,2c-0.6,0.5-1.2,0.8-2,0.8
				c-0.5,0-1-0.1-1.4-0.4s-0.7-0.6-1-1v1.3h-0.6v-7.7h0.6V39c0.2-0.4,0.6-0.8,1-1C112.8,37.7,113.3,37.6,113.8,37.6z M112.1,42.1
				c0.4,0.5,1,0.7,1.7,0.7s1.2-0.2,1.7-0.7c0.4-0.5,0.7-1,0.7-1.7s-0.2-1.2-0.7-1.7c-0.4-0.5-1-0.7-1.7-0.7s-1.2,0.2-1.7,0.7
				c-0.4,0.5-0.7,1-0.7,1.7S111.7,41.6,112.1,42.1z"/>
			<path class="st1" d="M123.2,37.7h0.6v5.5h-0.6v-1c-0.4,0.8-1.1,1.2-2,1.2c-0.7,0-1.2-0.2-1.6-0.6c-0.4-0.4-0.6-0.9-0.6-1.6v-3.4
				h0.6v3.4c0,0.5,0.1,0.9,0.4,1.2c0.3,0.3,0.7,0.5,1.2,0.5c0.6,0,1-0.2,1.4-0.6c0.4-0.4,0.5-0.9,0.5-1.6L123.2,37.7L123.2,37.7z"/>
			<path class="st1" d="M126.8,43.2v-8h0.6v8H126.8z"/>
			<path class="st1" d="M131.3,42.4l-0.6,2.3h-0.5l0.4-2.3H131.3z"/>
			<path class="st1" d="M138.9,38.8c0.3-0.8,0.9-1.2,1.8-1.2v0.5c-0.5,0-1,0.2-1.3,0.5c-0.4,0.3-0.5,0.8-0.5,1.5v3h-0.6v-5.5h0.6
				L138.9,38.8L138.9,38.8z"/>
			<path class="st1" d="M147.6,37.7h0.6v5.5h-0.6v-1.2c-0.2,0.4-0.6,0.8-1,1s-0.9,0.4-1.4,0.4c-0.8,0-1.4-0.3-2-0.8
				c-0.6-0.5-0.8-1.2-0.8-2s0.3-1.5,0.8-2c0.6-0.5,1.2-0.8,2-0.8c0.5,0,1,0.1,1.4,0.4s0.7,0.6,1,1V37.7z M143.7,42.1
				c0.4,0.5,1,0.7,1.6,0.7s1.2-0.2,1.6-0.7s0.7-1,0.7-1.7s-0.2-1.2-0.7-1.7c-0.4-0.5-1-0.7-1.6-0.7s-1.2,0.2-1.6,0.7s-0.7,1-0.7,1.7
				S143.2,41.6,143.7,42.1z"/>
			<path class="st1" d="M153.7,37.6c0.6,0,1.2,0.2,1.6,0.6c0.4,0.4,0.6,0.9,0.6,1.6v3.4h-0.6v-3.4c0-0.5-0.1-0.9-0.4-1.2
				c-0.3-0.3-0.7-0.5-1.2-0.5c-0.6,0-1,0.2-1.4,0.6c-0.4,0.4-0.5,0.9-0.5,1.6v2.9h-0.6v-5.5h0.6v1C152.1,38,152.8,37.6,153.7,37.6z"
				/>
			<path class="st1" d="M163.5,35.5h0.6v7.7h-0.6v-1.3c-0.2,0.4-0.6,0.8-1,1s-0.9,0.4-1.4,0.4c-0.8,0-1.5-0.3-2-0.8
				c-0.6-0.5-0.8-1.2-0.8-2s0.3-1.5,0.8-2c0.6-0.5,1.2-0.8,2-0.8c0.5,0,1,0.1,1.4,0.4c0.4,0.2,0.7,0.6,1,1V35.5z M159.6,42.1
				c0.4,0.5,1,0.7,1.6,0.7s1.2-0.2,1.6-0.7s0.7-1,0.7-1.7s-0.2-1.2-0.7-1.7c-0.4-0.5-1-0.7-1.6-0.7s-1.2,0.2-1.6,0.7s-0.7,1-0.7,1.7
				S159.1,41.6,159.6,42.1z"/>
			<path class="st1" d="M169.6,37.6c0.8,0,1.5,0.3,2,0.9s0.8,1.2,0.8,2c0,0,0,0.1,0,0.1c0,0.1,0,0.1,0,0.1h-5
				c0.1,0.6,0.3,1.1,0.7,1.5c0.4,0.4,1,0.6,1.6,0.6c0.4,0,0.8-0.1,1.1-0.3c0.3-0.2,0.6-0.4,0.8-0.7l0.5,0.3c-0.2,0.4-0.6,0.7-1,0.9
				c-0.4,0.2-0.9,0.3-1.4,0.3c-0.8,0-1.5-0.3-2.1-0.8s-0.8-1.2-0.8-2.1c0-0.8,0.3-1.5,0.8-2C168,37.8,168.7,37.6,169.6,37.6z
				 M169.6,38.1c-0.6,0-1.1,0.2-1.6,0.6c-0.4,0.4-0.7,0.9-0.7,1.5h4.4c-0.1-0.7-0.3-1.2-0.7-1.5C170.6,38.3,170.1,38.1,169.6,38.1z"
				/>
			<path class="st1" d="M178.7,37.7h0.6l-2.3,5.5h-0.7l-2.3-5.5h0.6l2.1,4.9L178.7,37.7z"/>
			<path class="st1" d="M185.5,37.7h0.6v5.5h-0.6v-1c-0.4,0.8-1.1,1.2-2,1.2c-0.6,0-1.2-0.2-1.6-0.6c-0.4-0.4-0.6-0.9-0.6-1.6v-3.4
				h0.6v3.4c0,0.5,0.1,0.9,0.4,1.2c0.3,0.3,0.7,0.5,1.2,0.5c0.6,0,1-0.2,1.4-0.6c0.4-0.4,0.5-0.9,0.5-1.6L185.5,37.7L185.5,37.7z"/>
			<path class="st1" d="M191.6,37.6c0.6,0,1.2,0.2,1.6,0.6c0.4,0.4,0.6,0.9,0.6,1.6v3.4h-0.6v-3.4c0-0.5-0.1-0.9-0.4-1.2
				c-0.3-0.3-0.7-0.5-1.2-0.5c-0.6,0-1,0.2-1.4,0.6c-0.4,0.4-0.5,0.9-0.5,1.6v2.9h-0.6v-5.5h0.6v1C190,38,190.7,37.6,191.6,37.6z"/>
			<path class="st1" d="M200.5,37.7h0.6v5.5h-0.6v-1c-0.4,0.8-1.1,1.2-2,1.2c-0.6,0-1.2-0.2-1.6-0.6c-0.4-0.4-0.6-0.9-0.6-1.6v-3.4
				h0.6v3.4c0,0.5,0.1,0.9,0.4,1.2c0.3,0.3,0.7,0.5,1.2,0.5c0.6,0,1-0.2,1.4-0.6c0.4-0.4,0.5-0.9,0.5-1.6L200.5,37.7L200.5,37.7z"/>
			<path class="st1" d="M213.1,37.7h0.6v5.5h-0.6v-1.2c-0.2,0.4-0.6,0.8-1,1s-0.9,0.4-1.4,0.4c-0.8,0-1.4-0.3-2-0.8
				c-0.6-0.5-0.8-1.2-0.8-2s0.3-1.5,0.8-2c0.6-0.5,1.2-0.8,2-0.8c0.5,0,1,0.1,1.4,0.4s0.7,0.6,1,1V37.7z M209.2,42.1
				c0.4,0.5,1,0.7,1.6,0.7s1.2-0.2,1.6-0.7s0.7-1,0.7-1.7s-0.2-1.2-0.7-1.7c-0.4-0.5-1-0.7-1.6-0.7s-1.2,0.2-1.6,0.7s-0.7,1-0.7,1.7
				S208.7,41.6,209.2,42.1z"/>
			<path class="st1" d="M216.7,43.2v-8h0.6v8H216.7z"/>
			<path class="st1" d="M220.9,43.2c-0.1,0.1-0.2,0.1-0.4,0.1s-0.3,0-0.4-0.1c-0.1-0.1-0.1-0.2-0.1-0.3s0.1-0.3,0.1-0.3
				c0.1-0.1,0.2-0.1,0.4-0.1s0.3,0,0.4,0.1c0.1,0.1,0.1,0.2,0.1,0.3S221.1,43.1,220.9,43.2z M220.4,41.2l-0.1-3.5v-2.2h0.7v2.2
				l-0.1,3.5H220.4z"/>
		</g>
	</g>
	<g>
		<g>
			<g>
				<path class="st2" d="M16.7,20.6c0.9,2.4,1.9,4.7,2.8,7c0.3,0.8,0.6,1.5,0.9,2.3c0.1,0.2,0.3,0.4,0.5,0.5
					c0.7,0.4,1.5,0.8,2.2,1.1c0.2,0.1,0.3,0.3,0.3,0.6c-0.3,5.3-1.5,17.4-2,23c0,0.3-0.5,0.3-0.6,0c-0.5-5.4-1.7-16.8-2.3-22.6
					c0-0.3-0.2-0.9-0.3-1.2c-1.4-3.4-2.8-6.9-4.2-10.3c-0.1-0.2-0.2-0.4-0.4-0.5c-2-0.9-3-2.6-3.4-4.8c-0.1-0.6,0-1.2,0.1-1.7
					c0.1-0.7-0.1-1.3-0.6-1.8c-0.7-0.7-1.5-1.4-2.2-2.1C7.5,9.9,7.3,9.7,7.2,9.5c0.2-0.2,0.4-0.4,0.7-0.6C8.1,8.8,8.4,8.8,8.7,9
					c0.7,0.5,1.5,1,2.3,1.4c0.6,0.3,1.3,0.2,2-0.1c2-1.1,4.4-0.5,5.8,1.4c1.6,2.2,1.6,5.3,0,7.4C18.2,19.7,17.5,20.2,16.7,20.6z
					 M13.2,18.4c1.4,1.3,3.2,1.2,4.4-0.2c1.5-1.8,1.3-4.7-0.5-6.2c-1.2-1-2.8-1-3.9-0.1C11.4,13.5,11.3,16.6,13.2,18.4z M20.5,32.6
					c-0.3,0.3-0.2,0.8,0,1.1c0.3,0.3,0.8,0.3,1.1-0.1c0.3-0.3,0.2-0.8-0.1-1.1C21.3,32.3,20.8,32.3,20.5,32.6z"/>
				<path class="st2" d="M23.8,29.9c-0.8-0.4-1.6-0.7-2.5-1.1c1.2-2.9,2.3-5.7,3.5-8.5c-0.6-0.5-1.2-1-1.7-1.5
					c-0.7-0.7-1-1.6-1.2-2.5c0-0.3-0.1-0.4-0.4-0.5c-0.5-0.1-0.8-0.7-0.8-1.2c0-0.5,0.4-1,0.9-1.1c0.3-0.1,0.4-0.2,0.5-0.4
					c0.6-1.7,1.7-2.9,3.5-3.4c1.8-0.5,3.7,0.3,4.8,2c1.5,2.2,1.4,5.3-0.4,7.4c-0.7,0.9-1.7,1.4-2.8,1.5c-0.3,0-0.4,0.1-0.5,0.4
					C25.8,23.9,24.8,26.8,23.8,29.9z M24.6,18.2c1.3,1.2,3.3,1.1,4.4-0.2c1.4-1.7,1.4-4.2-0.1-5.9c-1.1-1.3-3-1.5-4.2-0.4
					C22.8,13.3,22.8,16.6,24.6,18.2z"/>
			</g>
		</g>
		<path class="st2" d="M58.5,15.6c1.8,0,3.4,0.7,4.7,2.1c1.3,1.4,2,3.1,2,5.1s-0.7,3.8-2,5.1c-1.3,1.4-2.9,2.1-4.7,2.1
			c-1.9,0-3.4-0.7-4.5-2v1.6h-3.5V10.5H54v7.1C55.1,16.3,56.6,15.6,58.5,15.6z M55.1,25.7c0.7,0.7,1.6,1.1,2.7,1.1s2-0.4,2.7-1.1
			c0.7-0.7,1.1-1.6,1.1-2.8s-0.4-2.1-1.1-2.8c-0.7-0.7-1.6-1.1-2.7-1.1s-2,0.4-2.7,1.1c-0.7,0.7-1.1,1.6-1.1,2.8
			C54,24,54.4,25,55.1,25.7z"/>
		<path class="st2" d="M70.1,24.4c0.5,1.7,1.8,2.6,3.9,2.6c1.4,0,2.4-0.5,3.1-1.4l2.9,1.6c-1.4,2-3.3,2.9-6,2.9
			c-2.3,0-4.1-0.7-5.5-2.1c-1.4-1.4-2.1-3.1-2.1-5.2c0-2.1,0.7-3.8,2-5.2c1.4-1.4,3.1-2.1,5.2-2.1c2,0,3.7,0.7,5,2.1s2,3.1,2,5.2
			c0,0.5-0.1,0.9-0.1,1.5H70.1z M70.1,21.6h7c-0.2-0.9-0.6-1.6-1.2-2.1c-0.6-0.5-1.3-0.7-2.2-0.7c-0.9,0-1.7,0.2-2.4,0.7
			C70.7,20,70.3,20.7,70.1,21.6z"/>
		<path class="st2" d="M86.1,18.4c0.3-0.9,0.9-1.5,1.6-2c0.8-0.4,1.6-0.7,2.5-0.7v4c-1.1-0.1-2.1,0.1-2.9,0.7s-1.3,1.5-1.3,2.8v6.6
			h-3.6V16h3.6V18.4z"/>
		<path class="st2" d="M99.8,15.6c1.8,0,3.4,0.7,4.7,2.1s2,3.1,2,5.1s-0.7,3.8-2,5.1s-2.9,2.1-4.7,2.1c-1.9,0-3.4-0.7-4.4-2v1.6
			h-3.6V10.5h3.6v7.1C96.4,16.3,97.9,15.6,99.8,15.6z M96.4,25.7c0.7,0.7,1.6,1.1,2.7,1.1s2-0.4,2.7-1.1c0.7-0.7,1.1-1.6,1.1-2.8
			s-0.4-2.1-1.1-2.8c-0.7-0.7-1.6-1.1-2.7-1.1s-2,0.4-2.7,1.1c-0.7,0.7-1.1,1.6-1.1,2.8C95.3,24,95.7,25,96.4,25.7z"/>
		<path class="st2" d="M111.4,24.4c0.5,1.7,1.8,2.6,3.9,2.6c1.4,0,2.4-0.5,3.1-1.4l2.9,1.6c-1.4,2-3.3,2.9-6,2.9
			c-2.3,0-4.1-0.7-5.5-2.1c-1.4-1.4-2.1-3.1-2.1-5.2c0-2.1,0.7-3.8,2-5.2c1.4-1.4,3.1-2.1,5.2-2.1c2,0,3.7,0.7,5,2.1s2,3.1,2,5.2
			c0,0.5-0.1,0.9-0.1,1.5H111.4z M111.4,21.6h7c-0.2-0.9-0.6-1.6-1.2-2.1c-0.6-0.5-1.3-0.7-2.2-0.7c-0.9,0-1.7,0.2-2.4,0.7
			C112,20,111.6,20.7,111.4,21.6z"/>
		<path class="st2" d="M127.4,18.4c0.3-0.9,0.9-1.5,1.6-2c0.8-0.4,1.6-0.7,2.5-0.7v4c-1.1-0.1-2.1,0.1-2.9,0.7
			c-0.8,0.6-1.3,1.5-1.3,2.8v6.6h-3.6V16h3.6V18.4z"/>
		<g>
			<path class="st2" d="M223.9,10.5c0.5,0,0.9,0.1,1.4,0.4c0.4,0.2,0.8,0.6,1.1,1.1c0.2,0.4,0.4,0.9,0.4,1.4s-0.1,1-0.4,1.4
				s-0.6,0.8-1.1,1.1c-0.4,0.2-0.9,0.4-1.4,0.4s-1-0.1-1.4-0.4c-0.4-0.2-0.8-0.6-1.1-1.1s-0.4-0.9-0.4-1.4s0.1-1,0.4-1.4
				s0.6-0.8,1.1-1.1C223,10.7,223.5,10.5,223.9,10.5z M223.9,11c-0.4,0-0.8,0.1-1.2,0.3c-0.4,0.2-0.7,0.5-0.9,0.9
				c-0.2,0.4-0.3,0.8-0.3,1.2c0,0.4,0.1,0.8,0.3,1.2c0.2,0.4,0.5,0.7,0.9,0.9s0.8,0.3,1.2,0.3s0.8-0.1,1.2-0.3s0.7-0.5,0.9-0.9
				s0.3-0.8,0.3-1.2c0-0.4-0.1-0.8-0.3-1.2s-0.5-0.7-0.9-0.9C224.7,11.1,224.3,11,223.9,11z M222.7,14.9v-3.1h1.1
				c0.4,0,0.6,0,0.8,0.1c0.2,0.1,0.3,0.1,0.4,0.3c0.1,0.1,0.1,0.3,0.1,0.4c0,0.2-0.1,0.4-0.2,0.6c-0.2,0.2-0.4,0.3-0.6,0.3
				c0.1,0.1,0.2,0.1,0.3,0.2c0.1,0.1,0.3,0.3,0.4,0.6l0.4,0.6h-0.6l-0.3-0.5c-0.2-0.4-0.4-0.6-0.5-0.7c-0.1-0.1-0.2-0.1-0.4-0.1
				h-0.3v1.3L222.7,14.9L222.7,14.9z M223.2,13.2h0.6c0.3,0,0.5,0,0.6-0.1s0.2-0.2,0.2-0.3c0-0.1,0-0.2-0.1-0.2s-0.1-0.1-0.2-0.2
				c-0.1,0-0.2-0.1-0.5-0.1h-0.6V13.2z"/>
		</g>
	</g>
</g>
</svg>
